<svg width="121" height="42" viewBox="0 0 121 42" fill="none" xmlns="http://www.w3.org/2000/svg">
<path d="M10.166 28L9.19402 25.12H3.93802L2.96602 28H0.230023L4.83802 15.328H8.29402L12.902 28H10.166ZM4.60402 23.104H8.52802L7.07002 18.766C6.90802 18.262 6.80002 17.596 6.78202 16.966C6.78202 16.858 6.74602 16.714 6.56602 16.714C6.38602 16.714 6.35002 16.858 6.35002 16.966C6.33202 17.596 6.22402 18.262 6.06202 18.766L4.60402 23.104ZM15.8986 20.53C16.0066 20.548 16.0966 20.404 16.1146 20.35C16.6906 19.036 17.2126 18.352 19.5346 18.352V20.692C16.8526 20.512 16.0786 21.466 16.0786 23.878V28H13.7746V18.496H16.0786V19.018C16.0786 19.432 15.9706 19.792 15.8086 20.116C15.7366 20.278 15.6826 20.494 15.8986 20.53ZM19.8256 23.248C19.8256 20.422 21.6796 18.352 24.6316 18.352C27.2956 18.352 28.8796 20.152 29.0416 22.096H26.7736C26.6296 21.196 25.9276 20.44 24.6316 20.44C23.0476 20.44 22.1296 21.592 22.1296 23.248C22.1296 24.904 23.0476 26.056 24.6316 26.056C25.9276 26.056 26.6296 25.3 26.7736 24.4H29.0416C28.8796 26.344 27.3136 28.144 24.6316 28.144C21.7336 28.144 19.8256 26.074 19.8256 23.248ZM35.7006 18.352C37.7526 18.352 39.1206 19.684 39.1206 22.384V28H36.8166V23.176C36.8166 21.034 36.2586 20.44 35.0526 20.44C33.7206 20.44 32.4966 21.934 32.4966 24.13V28H30.1926V15.04H32.4966V19.09C32.4966 19.666 32.3886 20.008 32.2086 20.386C32.1366 20.548 32.0286 20.8 32.2626 20.854C32.4066 20.89 32.4606 20.782 32.5326 20.638C32.9646 19.684 34.0446 18.352 35.7006 18.352ZM40.7043 17.344V15.04H43.0083V17.344H40.7043ZM40.7043 28V18.496H43.0083V28H40.7043ZM43.7359 18.496H46.1839L48.2899 25.444C48.3979 25.804 48.4159 26.146 48.4159 26.488C48.4159 26.614 48.4519 26.758 48.6319 26.758C48.8119 26.758 48.8479 26.614 48.8479 26.488C48.8479 26.146 48.8659 25.804 48.9739 25.444L51.0799 18.496H53.5279L50.2879 28H46.9759L43.7359 18.496ZM62.7564 23.122C62.7564 23.374 62.7384 23.554 62.7024 23.824H55.7904C55.9524 25.264 56.8884 26.128 58.3284 26.128C59.4264 26.128 59.9844 25.534 60.2544 24.688H62.5944C62.1804 26.65 60.8484 28.144 58.3104 28.144C55.2324 28.144 53.5404 26.074 53.5404 23.248C53.5404 20.278 55.3764 18.352 58.2744 18.352C60.4704 18.352 62.7564 19.666 62.7564 23.122ZM55.8804 22.24H60.4524C60.3624 21.088 59.6784 20.224 58.3464 20.224C56.7804 20.224 56.1144 21.106 55.8804 22.24ZM64.1887 28V15.328H68.4367L71.0647 24.904C71.1547 25.228 71.1727 25.696 71.1727 26.128C71.1727 26.272 71.2447 26.344 71.3887 26.344C71.5327 26.344 71.6047 26.272 71.6047 26.128C71.6047 25.696 71.6227 25.228 71.7127 24.904L74.3407 15.328H78.5887V28H76.1407V18.514C76.1407 17.938 76.2847 17.488 76.4467 17.002C76.5007 16.84 76.4467 16.732 76.2847 16.696C76.1947 16.678 76.1047 16.732 76.0687 16.858L72.9007 28H69.8767L66.7087 16.858C66.6727 16.732 66.5827 16.678 66.4927 16.696C66.3307 16.732 66.2767 16.84 66.3307 17.002C66.4927 17.488 66.6367 17.938 66.6367 18.514V28H64.1887ZM80.0306 25.39C80.0306 23.284 81.5786 22.51 83.4866 22.402C85.1786 22.312 86.6726 22.474 86.6546 21.592C86.6366 20.944 86.3846 20.224 84.7466 20.224C83.1266 20.224 82.7126 20.89 82.5866 21.664H80.3186C80.6426 19.27 82.6946 18.352 84.8186 18.352C86.9966 18.352 88.9586 19.072 88.9586 22.744V28H86.6546V27.334C86.6546 26.902 86.7626 26.596 86.9246 26.29C86.9966 26.128 87.0686 25.948 86.9066 25.876C86.7266 25.804 86.6546 25.984 86.6186 26.074C86.0786 27.388 85.0346 28.144 83.3426 28.144C81.5606 28.144 80.0306 26.992 80.0306 25.39ZM86.6546 23.104C86.1146 23.698 85.2506 23.788 83.8826 23.932C82.8926 24.04 82.3346 24.418 82.3346 25.264C82.3346 26.056 83.0906 26.56 84.1526 26.416C85.3766 26.254 86.6366 25.462 86.6546 23.104ZM96.2983 20.512H93.7063V24.85C93.7063 25.894 93.7243 25.984 94.6963 25.984H96.2983V28H94.2103C92.3023 28 91.4023 27.37 91.4023 25.084V20.512H89.6743V18.496H91.4023V15.904H93.7063V18.496H96.2983V20.512ZM103.347 20.512H100.755V24.85C100.755 25.894 100.773 25.984 101.745 25.984H103.347V28H101.259C99.3511 28 98.4511 27.37 98.4511 25.084V20.512H96.7231V18.496H98.4511V15.904H100.755V18.496H103.347V20.512ZM113.276 23.122C113.276 23.374 113.258 23.554 113.222 23.824H106.31C106.472 25.264 107.408 26.128 108.848 26.128C109.946 26.128 110.504 25.534 110.774 24.688H113.114C112.7 26.65 111.368 28.144 108.83 28.144C105.752 28.144 104.06 26.074 104.06 23.248C104.06 20.278 105.896 18.352 108.794 18.352C110.99 18.352 113.276 19.666 113.276 23.122ZM106.4 22.24H110.972C110.882 21.088 110.198 20.224 108.866 20.224C107.3 20.224 106.634 21.106 106.4 22.24ZM116.551 20.53C116.659 20.548 116.749 20.404 116.767 20.35C117.343 19.036 117.865 18.352 120.187 18.352V20.692C117.505 20.512 116.731 21.466 116.731 23.878V28H114.427V18.496H116.731V19.018C116.731 19.432 116.623 19.792 116.461 20.116C116.389 20.278 116.335 20.494 116.551 20.53Z" fill="black"/>
</svg>
